REM DIRINDEX 1\3,1\2\4,1\2\5,1\2\6
REM DIRNAME cjc137,folder01,folder02,folder03,folder04,folder05
TITLE ""
FILE "036.mp3" MP3
  TRACK 01 AUDIO
    TITLE "4:cjc137_1473"
    INDEX 01 00:00:00
  TRACK 02 AUDIO
    TITLE "0:"
    INDEX 01 00:01:11
  TRACK 03 AUDIO
    TITLE "6:cjc137_1474"
    INDEX 01 00:01:22
  TRACK 04 AUDIO
    TITLE "0:"
    INDEX 01 00:02:08
  TRACK 05 AUDIO
    TITLE "5:cjc137_1475"
    INDEX 01 00:02:18
  TRACK 06 AUDIO
    TITLE "0:"
    INDEX 01 00:03:29
  TRACK 07 AUDIO
    TITLE "4:cjc137_1476"
    INDEX 01 00:04:38
  TRACK 08 AUDIO
    TITLE "0:"
    INDEX 01 00:05:40
  TRACK 09 AUDIO
    TITLE "6:cjc137_1477"
    INDEX 01 00:05:44
  TRACK 10 AUDIO
    TITLE "0:"
    INDEX 01 00:06:59
  TRACK 11 AUDIO
    TITLE "5:cjc137_1478"
    INDEX 01 00:06:61
  TRACK 12 AUDIO
    TITLE "0:"
    INDEX 01 00:07:64
  TRACK 13 AUDIO
    TITLE "4:cjc137_1479"
    INDEX 01 00:08:72
  TRACK 14 AUDIO
    TITLE "0:"
    INDEX 01 00:10:23
  TRACK 15 AUDIO
    TITLE "6:cjc137_1480"
    INDEX 01 00:10:31
  TRACK 16 AUDIO
    TITLE "0:"
    INDEX 01 00:11:40
  TRACK 17 AUDIO
    TITLE "5:cjc137_1481"
    INDEX 01 00:11:46
  TRACK 18 AUDIO
    TITLE "0:"
    INDEX 01 00:13:00
  TRACK 19 AUDIO
    TITLE "4:cjc137_1482"
    INDEX 01 00:14:07
  TRACK 20 AUDIO
    TITLE "0:"
    INDEX 01 00:15:32
  TRACK 21 AUDIO
    TITLE "6:cjc137_1483"
    INDEX 01 00:15:38
  TRACK 22 AUDIO
    TITLE "0:"
    INDEX 01 00:16:32
  TRACK 23 AUDIO
    TITLE "5:cjc137_1484"
    INDEX 01 00:16:40
  TRACK 24 AUDIO
    TITLE "0:"
    INDEX 01 00:17:61
  TRACK 25 AUDIO
    TITLE "4:cjc137_1485"
    INDEX 01 00:18:70
  TRACK 26 AUDIO
    TITLE "0:"
    INDEX 01 00:20:04
  TRACK 27 AUDIO
    TITLE "6:cjc137_1486"
    INDEX 01 00:20:20
  TRACK 28 AUDIO
    TITLE "0:"
    INDEX 01 00:21:25
  TRACK 29 AUDIO
    TITLE "5:cjc137_1487"
    INDEX 01 00:21:37
  TRACK 30 AUDIO
    TITLE "0:"
    INDEX 01 00:22:44
  TRACK 31 AUDIO
    TITLE "4:cjc137_1488"
    INDEX 01 00:23:57
  TRACK 32 AUDIO
    TITLE "0:"
    INDEX 01 00:24:65
  TRACK 33 AUDIO
    TITLE "6:cjc137_1489"
    INDEX 01 00:24:71
  TRACK 34 AUDIO
    TITLE "0:"
    INDEX 01 00:25:56
  TRACK 35 AUDIO
    TITLE "5:cjc137_1490"
    INDEX 01 00:25:62
  TRACK 36 AUDIO
    TITLE "0:"
    INDEX 01 00:26:69
  TRACK 37 AUDIO
    TITLE "4:cjc137_1491"
    INDEX 01 00:28:02
  TRACK 38 AUDIO
    TITLE "0:"
    INDEX 01 00:29:07
  TRACK 39 AUDIO
    TITLE "6:cjc137_1492"
    INDEX 01 00:29:17
  TRACK 40 AUDIO
    TITLE "0:"
    INDEX 01 00:30:65
  TRACK 41 AUDIO
    TITLE "5:cjc137_1493"
    INDEX 01 00:30:73
  TRACK 42 AUDIO
    TITLE "0:"
    INDEX 01 00:32:05
  TRACK 43 AUDIO
    TITLE "4:cjc137_1494"
    INDEX 01 00:33:13
  TRACK 44 AUDIO
    TITLE "0:"
    INDEX 01 00:34:10
  TRACK 45 AUDIO
    TITLE "6:cjc137_1495"
    INDEX 01 00:34:20
  TRACK 46 AUDIO
    TITLE "0:"
    INDEX 01 00:35:35
  TRACK 47 AUDIO
    TITLE "5:cjc137_1496"
    INDEX 01 00:35:41
  TRACK 48 AUDIO
    TITLE "0:"
    INDEX 01 00:36:42
  TRACK 49 AUDIO
    TITLE "4:cjc137_1497"
    INDEX 01 00:37:52
  TRACK 50 AUDIO
    TITLE "0:"
    INDEX 01 00:38:71
  TRACK 51 AUDIO
    TITLE "6:cjc137_1498"
    INDEX 01 00:39:03
  TRACK 52 AUDIO
    TITLE "0:"
    INDEX 01 00:40:17
  TRACK 53 AUDIO
    TITLE "5:cjc137_1499"
    INDEX 01 00:40:26
  TRACK 54 AUDIO
    TITLE "0:"
    INDEX 01 00:41:45
  TRACK 55 AUDIO
    TITLE "4:cjc137_1500"
    INDEX 01 00:42:53
  TRACK 56 AUDIO
    TITLE "0:"
    INDEX 01 00:43:68
  TRACK 57 AUDIO
    TITLE "6:cjc137_1501"
    INDEX 01 00:44:01
  TRACK 58 AUDIO
    TITLE "0:"
    INDEX 01 00:44:65
  TRACK 59 AUDIO
    TITLE "5:cjc137_1502"
    INDEX 01 00:44:71
  TRACK 60 AUDIO
    TITLE "0:"
    INDEX 01 00:46:11
  TRACK 61 AUDIO
    TITLE "4:cjc137_1503"
    INDEX 01 00:47:19
  TRACK 62 AUDIO
    TITLE "0:"
    INDEX 01 00:48:20
  TRACK 63 AUDIO
    TITLE "6:cjc137_1504"
    INDEX 01 00:48:30
  TRACK 64 AUDIO
    TITLE "0:"
    INDEX 01 00:49:53
  TRACK 65 AUDIO
    TITLE "5:cjc137_1505"
    INDEX 01 00:49:59
  TRACK 66 AUDIO
    TITLE "0:"
    INDEX 01 00:50:58
  TRACK 67 AUDIO
    TITLE "4:cjc137_1506"
    INDEX 01 00:51:67
  TRACK 68 AUDIO
    TITLE "0:"
    INDEX 01 00:52:67
  TRACK 69 AUDIO
    TITLE "6:cjc137_1507"
    INDEX 01 00:53:02
  TRACK 70 AUDIO
    TITLE "0:"
    INDEX 01 00:53:60
  TRACK 71 AUDIO
    TITLE "5:cjc137_1508"
    INDEX 01 00:53:66
  TRACK 72 AUDIO
    TITLE "0:"
    INDEX 01 00:54:68
  TRACK 73 AUDIO
    TITLE "4:cjc137_1509"
    INDEX 01 00:56:04
  TRACK 74 AUDIO
    TITLE "0:"
    INDEX 01 00:57:11
  TRACK 75 AUDIO
    TITLE "6:cjc137_1510"
    INDEX 01 00:57:21
  TRACK 76 AUDIO
    TITLE "0:"
    INDEX 01 00:58:18
  TRACK 77 AUDIO
    TITLE "5:cjc137_1511"
    INDEX 01 00:58:26
  TRACK 78 AUDIO
    TITLE "0:"
    INDEX 01 00:59:34
  TRACK 79 AUDIO
    TITLE "4:cjc137_1512"
    INDEX 01 01:00:43
  TRACK 80 AUDIO
    TITLE "0:"
    INDEX 01 01:01:62
  TRACK 81 AUDIO
    TITLE "6:cjc137_1513"
    INDEX 01 01:01:74
  TRACK 82 AUDIO
    TITLE "0:"
    INDEX 01 01:03:26
  TRACK 83 AUDIO
    TITLE "5:cjc137_1514"
    INDEX 01 01:03:29
  TRACK 84 AUDIO
    TITLE "0:"
    INDEX 01 01:04:50
